<?xml version="1.0" encoding="utf-8"?>
<!-- Generator: Adobe Illustrator 16.0.0, SVG Export Plug-In . SVG Version: 6.00 Build 0)  -->
<!DOCTYPE svg PUBLIC "-//W3C//DTD SVG 1.1//EN" "http://www.w3.org/Graphics/SVG/1.1/DTD/svg11.dtd">
<svg version="1.1" id="Layer_1" xmlns="http://www.w3.org/2000/svg" xmlns:xlink="http://www.w3.org/1999/xlink" x="0px" y="0px"
	 width="595.279px" height="520.87px" viewBox="0 160.51 595.279 520.87" enable-background="new 0 160.51 595.279 520.87"
	 xml:space="preserve">
<title>Asset 37</title>
<g id="Layer_2">
	<g id="Layer_1-2">
		<path fill="#5497DA" d="M548.774,500.936H46.506v-297.64h502.268V500.936z M65.109,482.333h465.063V221.898H65.109V482.333z"/>
		<rect x="83.711" y="240.501" fill="#5497DA" width="18.603" height="18.603"/>
		<rect x="120.916" y="240.501" fill="#5497DA" width="18.603" height="18.603"/>
		<rect x="158.121" y="240.501" fill="#5497DA" width="18.603" height="18.603"/>
		<rect x="55.808" y="277.706" fill="#5497DA" width="483.665" height="18.603"/>
		<path fill="#5497DA" d="M474.364,491.635h-18.603V463.73h-21.393l-1.86-7.44c-3.721-12.092-8.371-24.184-14.882-35.345
			l-3.721-6.511l14.882-14.883l-39.065-39.995l-14.882,14.882l-6.511-3.721c-11.161-6.511-23.253-12.092-36.274-14.882l-6.512-0.93
			v-21.393h-55.807v21.393l-7.441,1.86c-13.021,2.79-25.113,8.371-36.274,14.882l-6.511,3.721l-14.883-14.882l-39.064,39.065
			l14.882,14.883l-2.791,6.511c-6.511,11.161-12.091,23.253-14.882,36.274l-1.86,7.441h-21.393v27.903h-18.603v-46.506h26.044
			c2.79-9.302,6.511-18.603,11.161-27.904l-18.603-18.603l66.039-66.039l18.603,18.603c8.371-4.65,17.672-8.371,26.974-11.162
			v-26.043h93.012v26.043c9.302,2.791,18.603,6.511,26.974,11.162l18.603-18.603l66.039,66.039l-18.603,18.603
			c4.65,8.371,8.371,17.673,11.162,26.974h26.043V491.635z"/>
		<path fill="#5497DA" d="M399.953,491.635h-18.603c0-46.507-37.205-83.712-83.711-83.712s-83.711,37.205-83.711,83.712h-18.603
			c0-56.738,45.576-102.314,102.313-102.314S399.953,434.896,399.953,491.635z"/>
		<rect x="288.339" y="445.128" fill="#5497DA" width="18.603" height="18.603"/>
		<rect x="325.543" y="445.128" fill="#5497DA" width="18.603" height="18.603"/>
		<rect x="251.134" y="445.128" fill="#5497DA" width="18.603" height="18.603"/>
		<rect x="474.364" y="314.911" fill="#5497DA" width="18.603" height="18.603"/>
		<rect x="474.364" y="352.116" fill="#5497DA" width="18.603" height="18.603"/>
		<rect x="492.966" y="333.513" fill="#5497DA" width="18.603" height="18.603"/>
		<rect x="455.761" y="333.513" fill="#5497DA" width="18.603" height="18.603"/>
		<rect x="102.314" y="361.417" fill="#5497DA" width="18.603" height="18.603"/>
		<rect x="102.314" y="398.622" fill="#5497DA" width="18.603" height="18.603"/>
		<rect x="120.916" y="380.02" fill="#5497DA" width="18.603" height="18.603"/>
		<rect x="83.711" y="380.02" fill="#5497DA" width="18.603" height="18.603"/>
		<g id="_Group_">
			<rect x="176.724" y="662.777" fill="#5497DA" width="241.832" height="18.603"/>
		</g>
		<g id="_Group_2">
			<path fill="#5497DA" d="M549.703,588.367H45.576C20.463,588.367,0,567.905,0,542.791V206.086
				c0-25.113,20.463-45.576,45.576-45.576l0,0h504.128c25.113,0,45.575,20.463,45.575,45.576v336.705
				C595.28,567.905,574.818,588.367,549.703,588.367z M45.576,179.112c-14.882,0-26.974,12.092-26.974,26.974v336.705
				c0,14.883,12.092,26.975,26.974,26.975h504.128c14.882,0,26.974-12.092,26.974-26.975V206.086
				c0-14.882-12.092-26.974-26.975-26.974H45.576z"/>
		</g>
		<g id="_Group_3">
			<rect x="27.904" y="523.259" fill="#5497DA" width="539.473" height="18.603"/>
		</g>
		<g id="_Group_4">
			<path fill="#5497DA" d="M393.443,681.38H201.837l33.484-111.614h125.567L393.443,681.38z M226.021,662.777h142.309l-22.323-74.41
				h-97.663L226.021,662.777z"/>
		</g>
	</g>
</g>
</svg>
