<?xml version="1.0" encoding="utf-8"?>
<!-- Generator: Adobe Illustrator 16.0.0, SVG Export Plug-In . SVG Version: 6.00 Build 0)  -->
<!DOCTYPE svg PUBLIC "-//W3C//DTD SVG 1.1//EN" "http://www.w3.org/Graphics/SVG/1.1/DTD/svg11.dtd">
<svg version="1.1" id="Layer_1" xmlns="http://www.w3.org/2000/svg" xmlns:xlink="http://www.w3.org/1999/xlink" x="0px" y="0px"
	 width="595.279px" height="595.28px" viewBox="0 123.305 595.279 595.28" enable-background="new 0 123.305 595.279 595.28"
	 xml:space="preserve">
<title>Asset 69</title>
<g id="Layer_2">
	<g id="Layer_1-2">
		<polygon fill="#5497DA" points="548.774,551.163 46.506,551.163 46.506,253.522 93.013,253.522 93.013,272.125 65.109,272.125 
			65.109,532.561 530.171,532.561 530.171,272.125 502.268,272.125 502.268,253.522 548.774,253.522 		"/>
		<path fill="#5497DA" d="M511.569,495.355H83.711V123.305h427.857V495.355z M102.314,476.753h390.652V141.907H102.314V476.753z"/>
		<path fill="#5497DA" d="M148.82,383.74c-15.41,0-27.903-12.493-27.903-27.904c0-15.411,12.493-27.904,27.903-27.904
			c15.411,0,27.904,12.493,27.904,27.904C176.724,371.247,164.231,383.74,148.82,383.74z M148.82,346.535
			c-5.137,0-9.301,4.164-9.301,9.301c0,5.137,4.164,9.301,9.301,9.301c5.138,0,9.302-4.165,9.302-9.301
			C158.121,350.699,153.957,346.535,148.82,346.535z"/>
		<path fill="#5497DA" d="M241.832,300.029c-15.41,0-27.903-12.493-27.903-27.904s12.493-27.904,27.903-27.904
			c15.411,0,27.904,12.493,27.904,27.904S257.243,300.029,241.832,300.029z M241.832,262.824c-5.137,0-9.301,4.165-9.301,9.301
			s4.164,9.301,9.301,9.301c5.138,0,9.302-4.165,9.302-9.301S246.97,262.824,241.832,262.824z"/>
		<path fill="#5497DA" d="M353.448,337.234c-15.411,0-27.904-12.493-27.904-27.904c0-15.411,12.493-27.904,27.904-27.904
			s27.903,12.493,27.903,27.904C381.351,324.741,368.859,337.234,353.448,337.234z M353.448,300.029
			c-5.137,0-9.302,4.165-9.302,9.301s4.165,9.301,9.302,9.301s9.301-4.165,9.301-9.301S358.584,300.029,353.448,300.029z"/>
		<path fill="#5497DA" d="M446.46,234.92c-15.411,0-27.904-12.493-27.904-27.904c0-15.411,12.493-27.904,27.904-27.904
			c15.41,0,27.903,12.493,27.903,27.904C474.364,222.427,461.87,234.92,446.46,234.92z M446.46,197.715
			c-5.137,0-9.302,4.165-9.302,9.301c0,5.137,4.165,9.301,9.302,9.301s9.301-4.164,9.301-9.301
			C455.761,201.879,451.597,197.715,446.46,197.715z"/>
		
			<rect x="145.88" y="304.733" transform="matrix(-0.7529 0.6582 -0.6582 -0.7529 549.0518 421.9126)" fill="#5497DA" width="98.872" height="18.602"/>
		
			<rect x="293.009" y="247.842" transform="matrix(-0.217 0.9762 -0.9762 -0.217 651.6962 58.686)" fill="#5497DA" width="18.603" height="85.756"/>
		
			<rect x="343.902" y="248.799" transform="matrix(-0.6643 0.7475 -0.7475 -0.6643 858.4698 130.6581)" fill="#5497DA" width="111.987" height="18.603"/>
		<rect x="139.519" y="402.343" fill="#5497DA" width="18.603" height="18.603"/>
		<rect x="232.531" y="318.631" fill="#5497DA" width="18.603" height="102.314"/>
		<rect x="344.146" y="355.836" fill="#5497DA" width="18.603" height="65.109"/>
		<rect x="437.158" y="253.522" fill="#5497DA" width="18.603" height="167.423"/>
		<rect x="437.158" y="439.548" fill="#5497DA" width="18.603" height="18.603"/>
		<rect x="139.519" y="439.548" fill="#5497DA" width="18.603" height="18.603"/>
		<rect x="232.531" y="439.548" fill="#5497DA" width="18.603" height="18.603"/>
		<rect x="344.146" y="439.548" fill="#5497DA" width="18.603" height="18.603"/>
		<g id="_Group_">
			<rect x="176.724" y="699.982" fill="#5497DA" width="241.832" height="18.603"/>
		</g>
		<g id="_Group_2">
			<rect x="27.904" y="569.766" fill="#5497DA" width="539.473" height="18.602"/>
		</g>
		<g id="_Group_3">
			<path fill="#5497DA" d="M393.815,718.585h-192.35l33.484-111.615H360.33L393.815,718.585z M226.393,699.982h142.495
				l-22.323-74.41h-97.85L226.393,699.982z"/>
		</g>
		<path fill="#5497DA" d="M549.518,197.715h-44.181v18.603h44.181c15,0,27.16,12.16,27.16,27.16v336.333
			c0,15-12.16,27.159-27.16,27.159H45.762c-15,0-27.159-12.159-27.159-27.159V243.477c0-15,12.159-27.16,27.159-27.16h43.344
			v-18.603H45.762C20.489,197.715,0,218.203,0,243.477l0,0v336.333c0,25.273,20.488,45.762,45.762,45.762h503.756
			c25.273,0,45.762-20.488,45.762-45.762V243.477C595.28,218.203,574.791,197.715,549.518,197.715z"/>
	</g>
</g>
</svg>
